<svg xmlns="http://www.w3.org/2000/svg" viewBox="0 0 200 200">
  <!-- Фон -->
  <circle cx="100" cy="100" r="90" fill="#FEF6EB" />
  
  <!-- Лицо -->
  <circle cx="100" cy="90" r="60" fill="#FFD9B3" />
  
  <!-- Волосы -->
  <path d="M50 70 C50 30, 150 30, 150 70" fill="#FFB6C1" />
  <path d="M50 70 C40 80, 40 100, 60 120 L60 70 Z" fill="#FFB6C1" />
  <path d="M150 70 C160 80, 160 100, 140 120 L140 70 Z" fill="#FFB6C1" />
  
  <!-- Шляпа детектива -->
  <path d="M50 70 L150 70 L130 40 L70 40 Z" fill="#4A4A6A" />
  <path d="M70 40 L130 40 L120 30 L80 30 Z" fill="#4A4A6A" />
  <rect x="70" y="30" width="60" height="10" fill="#4A4A6A" />
  
  <!-- Глаза -->
  <circle cx="80" cy="85" r="8" fill="white" />
  <circle cx="120" cy="85" r="8" fill="white" />
  <circle cx="80" cy="85" r="4" fill="#4A4A6A" />
  <circle cx="120" cy="85" r="4" fill="#4A4A6A" />
  
  <!-- Улыбка -->
  <path d="M85 105 C90 115, 110 115, 115 105" stroke="#4A4A6A" stroke-width="2" fill="none" />
  
  <!-- Щёки -->
  <circle cx="75" cy="95" r="6" fill="#FFB6C1" opacity="0.6" />
  <circle cx="125" cy="95" r="6" fill="#FFB6C1" opacity="0.6" />
  
  <!-- Пиджак -->
  <path d="M70 130 L60 170 L100 170 L140 170 L130 130 C115 140, 85 140, 70 130 Z" fill="#E84A5F" />
  
  <!-- Воротник -->
  <path d="M70 130 C85 140, 115 140, 130 130 L120 150 L100 140 L80 150 Z" fill="#FFF" />
  
  <!-- Лупа -->
  <circle cx="140" cy="130" r="25" fill="none" stroke="#4A4A6A" stroke-width="4" />
  <line x1="155" y1="145" x2="170" y2="165" stroke="#4A4A6A" stroke-width="6" />
  <circle cx="140" cy="130" r="18" fill="#D0F0FF" opacity="0.5" />
</svg>